<?xml version="1.0" encoding="UTF-8" standalone="no"?><svg xmlns="http://www.w3.org/2000/svg" xmlns:xlink="http://www.w3.org/1999/xlink" contentStyleType="text/css" height="976px" preserveAspectRatio="none" style="width:1182px;height:976px;background:#FFFFFF;" version="1.1" viewBox="0 0 1182 976" width="1182px" zoomAndPan="magnify"><defs/><g><ellipse cx="118" cy="53.2898" fill="#222222" rx="10" ry="10" style="stroke:#222222;stroke-width:1.0;"/><path d="M200,87.6089 L200,97.4619 L180,101.4619 L200,105.4619 L200,115.3149 A0,0 0 0 0 200,115.3149 L310,115.3149 A0,0 0 0 0 310,115.3149 L310,97.6089 L300,87.6089 L200,87.6089 A0,0 0 0 0 200,87.6089 " fill="#FEFFDD" style="stroke:#181818;stroke-width:0.5;"/><path d="M300,87.6089 L300,97.6089 L310,97.6089 L300,87.6089 " fill="#FEFFDD" style="stroke:#181818;stroke-width:0.5;"/><text fill="#000000" font-family="sans-serif" font-size="13" lengthAdjust="spacing" textLength="89" x="206" y="106.5059">suport@ctfd.io</text><rect fill="#F1F1F1" height="36.3441" rx="12.5" ry="12.5" style="stroke:#181818;stroke-width:0.5;" width="124" x="56" y="83.2898"/><text fill="#000000" font-family="sans-serif" font-size="12" lengthAdjust="spacing" textLength="104" x="66" y="106.1179">Solicitar cotización</text><path d="M235,129.6339 L235,179.899 L215,183.899 L235,187.899 L235,238.164 A0,0 0 0 0 235,238.164 L324,238.164 A0,0 0 0 0 324,238.164 L324,139.6339 L314,129.6339 L235,129.6339 A0,0 0 0 0 235,129.6339 " fill="#FEFFDD" style="stroke:#181818;stroke-width:0.5;"/><path d="M314,129.6339 L314,139.6339 L324,139.6339 L314,129.6339 " fill="#FEFFDD" style="stroke:#181818;stroke-width:0.5;"/><text fill="#000000" font-family="sans-serif" font-size="13" lengthAdjust="spacing" textLength="30" x="241" y="148.5309">Para:</text><text fill="#000000" font-family="sans-serif" font-size="13" lengthAdjust="spacing" textLength="57" x="247" y="166.237">Alejandro</text><line style="stroke:#181818;stroke-width:1.0;" x1="235" x2="324" y1="175.046" y2="175.046"/><line style="stroke:#181818;stroke-width:1.0;" x1="235" x2="324" y1="177.046" y2="177.046"/><text fill="#000000" font-family="sans-serif" font-size="13" lengthAdjust="spacing" textLength="19" x="241" y="193.943">CC:</text><text fill="#000000" font-family="sans-serif" font-size="13" lengthAdjust="spacing" textLength="30" x="247" y="211.649">Erlaú</text><text fill="#000000" font-family="sans-serif" font-size="13" lengthAdjust="spacing" textLength="62" x="247" y="229.355">Director TI</text><rect fill="#F1F1F1" height="36.3441" rx="12.5" ry="12.5" style="stroke:#181818;stroke-width:0.5;" width="194" x="21" y="165.7269"/><text fill="#000000" font-family="sans-serif" font-size="12" lengthAdjust="spacing" textLength="174" x="31" y="188.555">Solicitar aprobación de compra</text><path d="M221,479.0065 L221,497.7125 L201,501.7125 L221,505.7125 L221,524.4185 A0,0 0 0 0 221,524.4185 L338,524.4185 A0,0 0 0 0 338,524.4185 L338,489.0065 L328,479.0065 L221,479.0065 A0,0 0 0 0 221,479.0065 " fill="#FEFFDD" style="stroke:#181818;stroke-width:0.5;"/><path d="M328,479.0065 L328,489.0065 L338,489.0065 L328,479.0065 " fill="#FEFFDD" style="stroke:#181818;stroke-width:0.5;"/><text fill="#000000" font-family="sans-serif" font-size="13" lengthAdjust="spacing" textLength="88" x="227" y="497.9035">Erlaú Dorantes</text><text fill="#000000" font-family="sans-serif" font-size="13" lengthAdjust="spacing" textLength="96" x="227" y="515.6095">Alejandro López</text><rect fill="#F1F1F1" height="36.3441" rx="12.5" ry="12.5" style="stroke:#181818;stroke-width:0.5;" width="166" x="35" y="483.5405"/><text fill="#000000" font-family="sans-serif" font-size="12" lengthAdjust="spacing" textLength="146" x="45" y="506.3686">Agendar cita para compra</text><rect fill="#F1F1F1" height="36.3441" rx="12.5" ry="12.5" style="stroke:#181818;stroke-width:0.5;" width="100" x="68" y="657.1068"/><text fill="#000000" font-family="sans-serif" font-size="12" lengthAdjust="spacing" textLength="80" x="78" y="679.9349">Firmar factura</text><rect fill="#F1F1F1" height="36.3441" rx="12.5" ry="12.5" style="stroke:#181818;stroke-width:0.5;" width="194" x="21" y="831.981"/><text fill="#000000" font-family="sans-serif" font-size="12" lengthAdjust="spacing" textLength="174" x="31" y="854.8091">Agendar fecha para apagar vm</text><rect fill="#F1F1F1" height="36.3441" rx="12.5" ry="12.5" style="stroke:#181818;stroke-width:0.5;" width="82" x="77" y="888.3251"/><text fill="#000000" font-family="sans-serif" font-size="12" lengthAdjust="spacing" textLength="62" x="87" y="911.1532">Apagar VM</text><ellipse cx="118" cy="954.6692" fill="none" rx="10" ry="10" style="stroke:#222222;stroke-width:1.5;"/><line style="stroke:#222222;stroke-width:2.5;" x1="111.8128" x2="124.1872" y1="948.482" y2="960.8564"/><line style="stroke:#222222;stroke-width:2.5;" x1="124.1872" x2="111.8128" y1="948.482" y2="960.8564"/><line style="stroke:#000000;stroke-width:1.5;" x1="15" x2="15" y1="13.774" y2="964.6692"/><rect fill="#F1F1F1" height="36.3441" rx="12.5" ry="12.5" style="stroke:#181818;stroke-width:0.5;" width="204" x="349" y="258.164"/><text fill="#000000" font-family="sans-serif" font-size="12" lengthAdjust="spacing" textLength="184" x="359" y="280.9921">Seleccionar partida presupuestal</text><rect fill="#F1F1F1" height="36.3441" rx="12.5" ry="12.5" style="stroke:#181818;stroke-width:0.5;" width="191" x="355.5" y="314.5081"/><text fill="#000000" font-family="sans-serif" font-size="12" lengthAdjust="spacing" textLength="171" x="365.5" y="337.3362">Solicitar aprobación a finanzas</text><line style="stroke:#000000;stroke-width:1.5;" x1="343" x2="343" y1="13.774" y2="964.6692"/><rect fill="#F1F1F1" height="36.3441" rx="12.5" ry="12.5" style="stroke:#181818;stroke-width:0.5;" width="186" x="563" y="370.8522"/><text fill="#000000" font-family="sans-serif" font-size="12" lengthAdjust="spacing" textLength="166" x="573" y="393.6803">Firmar aprobación de compra</text><line style="stroke:#000000;stroke-width:1.5;" x1="557" x2="557" y1="13.774" y2="964.6692"/><rect fill="#F1F1F1" height="36.3441" rx="12.5" ry="12.5" style="stroke:#181818;stroke-width:0.5;" width="179" x="759" y="427.1964"/><text fill="#000000" font-family="sans-serif" font-size="12" lengthAdjust="spacing" textLength="159" x="769" y="450.0244">Recoger aprobación firmada</text><rect fill="#F1F1F1" height="36.3441" rx="12.5" ry="12.5" style="stroke:#181818;stroke-width:0.5;" width="112" x="792.5" y="600.7627"/><text fill="#000000" font-family="sans-serif" font-size="12" lengthAdjust="spacing" textLength="92" x="802.5" y="623.5907">Imprimir factura</text><path d="M941,703.4509 L941,753.7159 L921,757.7159 L941,761.7159 L941,811.981 A0,0 0 0 0 941,811.981 L1025,811.981 A0,0 0 0 0 1025,811.981 L1025,713.4509 L1015,703.4509 L941,703.4509 A0,0 0 0 0 941,703.4509 " fill="#FEFFDD" style="stroke:#181818;stroke-width:0.5;"/><path d="M1015,703.4509 L1015,713.4509 L1025,713.4509 L1015,703.4509 " fill="#FEFFDD" style="stroke:#181818;stroke-width:0.5;"/><text fill="#000000" font-family="sans-serif" font-size="13" lengthAdjust="spacing" textLength="30" x="947" y="722.3479">Para:</text><text fill="#000000" font-family="sans-serif" font-size="13" lengthAdjust="spacing" textLength="30" x="953" y="740.0539">Erlaú</text><line style="stroke:#181818;stroke-width:1.0;" x1="941" x2="1025" y1="748.8629" y2="748.8629"/><line style="stroke:#181818;stroke-width:1.0;" x1="941" x2="1025" y1="750.8629" y2="750.8629"/><text fill="#000000" font-family="sans-serif" font-size="13" lengthAdjust="spacing" textLength="19" x="947" y="767.7599">CC:</text><text fill="#000000" font-family="sans-serif" font-size="13" lengthAdjust="spacing" textLength="57" x="953" y="785.4659">Alejandro</text><text fill="#000000" font-family="sans-serif" font-size="13" lengthAdjust="spacing" textLength="41" x="953" y="803.172">Joshua</text><rect fill="#F1F1F1" height="36.3441" rx="12.5" ry="12.5" style="stroke:#181818;stroke-width:0.5;" width="145" x="776" y="739.5439"/><text fill="#000000" font-family="sans-serif" font-size="12" lengthAdjust="spacing" textLength="125" x="786" y="762.372">Enviar factura firmada</text><line style="stroke:#000000;stroke-width:1.5;" x1="753" x2="753" y1="13.774" y2="964.6692"/><rect fill="#F1F1F1" height="36.3441" rx="12.5" ry="12.5" style="stroke:#181818;stroke-width:0.5;" width="123" x="1036" y="544.4185"/><text fill="#000000" font-family="sans-serif" font-size="12" lengthAdjust="spacing" textLength="103" x="1046" y="567.2466">Comprar instancia</text><line style="stroke:#000000;stroke-width:1.5;" x1="1030" x2="1030" y1="13.774" y2="964.6692"/><line style="stroke:#000000;stroke-width:1.5;" x1="1163" x2="1163" y1="13.774" y2="964.6692"/><line style="stroke:#181818;stroke-width:1.0;" x1="118" x2="118" y1="63.2898" y2="83.2898"/><polygon fill="#181818" points="114,73.2898,118,83.2898,122,73.2898,118,77.2898" style="stroke:#181818;stroke-width:1.0;"/><line style="stroke:#181818;stroke-width:1.0;" x1="118" x2="118" y1="119.6339" y2="165.7269"/><polygon fill="#181818" points="114,155.7269,118,165.7269,122,155.7269,118,159.7269" style="stroke:#181818;stroke-width:1.0;"/><line style="stroke:#181818;stroke-width:1.0;" x1="118" x2="118" y1="868.3251" y2="888.3251"/><polygon fill="#181818" points="114,878.3251,118,888.3251,122,878.3251,118,882.3251" style="stroke:#181818;stroke-width:1.0;"/><line style="stroke:#181818;stroke-width:1.0;" x1="118" x2="118" y1="924.6692" y2="944.6692"/><polygon fill="#181818" points="114,934.6692,118,944.6692,122,934.6692,118,938.6692" style="stroke:#181818;stroke-width:1.0;"/><line style="stroke:#181818;stroke-width:1.0;" x1="451" x2="451" y1="294.5081" y2="314.5081"/><polygon fill="#181818" points="447,304.5081,451,314.5081,455,304.5081,451,308.5081" style="stroke:#181818;stroke-width:1.0;"/><line style="stroke:#181818;stroke-width:1.0;" x1="118" x2="118" y1="202.071" y2="237.6175"/><line style="stroke:#181818;stroke-width:1.0;" x1="118" x2="451" y1="237.6175" y2="237.6175"/><line style="stroke:#181818;stroke-width:1.0;" x1="451" x2="451" y1="237.6175" y2="258.164"/><polygon fill="#181818" points="447,248.164,451,258.164,455,248.164,451,252.164" style="stroke:#181818;stroke-width:1.0;"/><line style="stroke:#181818;stroke-width:1.0;" x1="451" x2="451" y1="350.8522" y2="355.8522"/><line style="stroke:#181818;stroke-width:1.0;" x1="451" x2="656" y1="355.8522" y2="355.8522"/><line style="stroke:#181818;stroke-width:1.0;" x1="656" x2="656" y1="355.8522" y2="370.8522"/><polygon fill="#181818" points="652,360.8522,656,370.8522,660,360.8522,656,364.8522" style="stroke:#181818;stroke-width:1.0;"/><line style="stroke:#181818;stroke-width:1.0;" x1="656" x2="656" y1="407.1964" y2="412.1964"/><line style="stroke:#181818;stroke-width:1.0;" x1="656" x2="848.5" y1="412.1964" y2="412.1964"/><line style="stroke:#181818;stroke-width:1.0;" x1="848.5" x2="848.5" y1="412.1964" y2="427.1964"/><polygon fill="#181818" points="844.5,417.1964,848.5,427.1964,852.5,417.1964,848.5,421.1964" style="stroke:#181818;stroke-width:1.0;"/><line style="stroke:#181818;stroke-width:1.0;" x1="848.5" x2="848.5" y1="463.5405" y2="468.5405"/><line style="stroke:#181818;stroke-width:1.0;" x1="848.5" x2="118" y1="468.5405" y2="468.5405"/><line style="stroke:#181818;stroke-width:1.0;" x1="118" x2="118" y1="468.5405" y2="483.5405"/><polygon fill="#181818" points="114,473.5405,118,483.5405,122,473.5405,118,477.5405" style="stroke:#181818;stroke-width:1.0;"/><line style="stroke:#181818;stroke-width:1.0;" x1="118" x2="118" y1="519.8846" y2="529.4185"/><line style="stroke:#181818;stroke-width:1.0;" x1="118" x2="1097.5" y1="529.4185" y2="529.4185"/><line style="stroke:#181818;stroke-width:1.0;" x1="1097.5" x2="1097.5" y1="529.4185" y2="544.4185"/><polygon fill="#181818" points="1093.5,534.4185,1097.5,544.4185,1101.5,534.4185,1097.5,538.4185" style="stroke:#181818;stroke-width:1.0;"/><line style="stroke:#181818;stroke-width:1.0;" x1="1097.5" x2="1097.5" y1="580.7627" y2="585.7627"/><line style="stroke:#181818;stroke-width:1.0;" x1="1097.5" x2="848.5" y1="585.7627" y2="585.7627"/><line style="stroke:#181818;stroke-width:1.0;" x1="848.5" x2="848.5" y1="585.7627" y2="600.7627"/><polygon fill="#181818" points="844.5,590.7627,848.5,600.7627,852.5,590.7627,848.5,594.7627" style="stroke:#181818;stroke-width:1.0;"/><line style="stroke:#181818;stroke-width:1.0;" x1="848.5" x2="848.5" y1="637.1068" y2="642.1068"/><line style="stroke:#181818;stroke-width:1.0;" x1="848.5" x2="118" y1="642.1068" y2="642.1068"/><line style="stroke:#181818;stroke-width:1.0;" x1="118" x2="118" y1="642.1068" y2="657.1068"/><polygon fill="#181818" points="114,647.1068,118,657.1068,122,647.1068,118,651.1068" style="stroke:#181818;stroke-width:1.0;"/><line style="stroke:#181818;stroke-width:1.0;" x1="118" x2="118" y1="693.4509" y2="703.9974"/><line style="stroke:#181818;stroke-width:1.0;" x1="118" x2="848.5" y1="703.9974" y2="703.9974"/><line style="stroke:#181818;stroke-width:1.0;" x1="848.5" x2="848.5" y1="703.9974" y2="739.5439"/><polygon fill="#181818" points="844.5,729.5439,848.5,739.5439,852.5,729.5439,848.5,733.5439" style="stroke:#181818;stroke-width:1.0;"/><line style="stroke:#181818;stroke-width:1.0;" x1="848.5" x2="848.5" y1="775.888" y2="811.4345"/><line style="stroke:#181818;stroke-width:1.0;" x1="848.5" x2="118" y1="811.4345" y2="811.4345"/><line style="stroke:#181818;stroke-width:1.0;" x1="118" x2="118" y1="811.4345" y2="831.981"/><polygon fill="#181818" points="114,821.981,118,831.981,122,821.981,118,825.981" style="stroke:#181818;stroke-width:1.0;"/><text fill="#000000" font-family="sans-serif" font-size="18" lengthAdjust="spacing" textLength="57" x="150.5" y="33.0158">Joshua</text><text fill="#000000" font-family="sans-serif" font-size="18" lengthAdjust="spacing" textLength="82" x="409" y="33.0158">Alejandro</text><text fill="#000000" font-family="sans-serif" font-size="18" lengthAdjust="spacing" textLength="90" x="610" y="33.0158">Director TI</text><text fill="#000000" font-family="sans-serif" font-size="18" lengthAdjust="spacing" textLength="50" x="866.5" y="33.0158">Felipe</text><text fill="#000000" font-family="sans-serif" font-size="18" lengthAdjust="spacing" textLength="43" x="1075" y="33.0158">Erlaú</text><!--MD5=[7b936f2463d78a6f4f4787ce1fd0385e]
@startuml
|Joshua|
start
:Solicitar cotización;
note right
suport@ctfd.io
end note
:Solicitar aprobación de compra;
note right
Para:
  Alejandro
====
CC:
  Erlaú
  Director TI
end note
|Alejandro|
:Seleccionar partida presupuestal;
:Solicitar aprobación a finanzas;
|Director TI|
:Firmar aprobación de compra;
|Felipe|
:Recoger aprobación firmada;
|Joshua|
:Agendar cita para compra;
note right
Erlaú Dorantes
Alejandro López
end note
|Erlaú|
:Comprar instancia;
|Felipe|
:Imprimir factura;
|Joshua|
:Firmar factura;
|Felipe|
:Enviar factura firmada;
note right
Para:
  Erlaú
====
CC:
  Alejandro
  Joshua
end note
|Joshua|
:Agendar fecha para apagar vm;
:Apagar VM;
end
@enduml

PlantUML version 1.2022.7(Mon Aug 22 12:01:30 CDT 2022)
(GPL source distribution)
Java Runtime: OpenJDK Runtime Environment
JVM: OpenJDK 64-Bit Server VM
Default Encoding: UTF-8
Language: es
Country: MX
--></g></svg>
